<?xml version="1.0" standalone="no"?>
<!DOCTYPE svg PUBLIC "-//W3C//DTD SVG 20010904//EN"
 "http://www.w3.org/TR/2001/REC-SVG-20010904/DTD/svg10.dtd">
<svg version="1.0" xmlns="http://www.w3.org/2000/svg"
 width="1024.000000pt" height="1024.000000pt" viewBox="0 0 1024.000000 1024.000000"
 preserveAspectRatio="xMidYMid meet">

<g transform="translate(0.000000,1024.000000) scale(0.100000,-0.100000)"
fill="#000000" stroke="none">
<path d="M4749 8170 c-38 -56 -83 -168 -112 -275 -15 -55 -32 -113 -38 -130
-6 -16 -13 -71 -16 -121 -6 -106 -6 -107 87 -118 30 -4 78 -11 105 -16 28 -5
90 -17 139 -25 322 -59 520 -223 560 -465 l6 -35 -173 0 c-94 0 -237 -4 -317
-8 -80 -4 -226 -4 -325 1 -176 8 -181 9 -240 40 -68 37 -102 79 -114 143 -8
44 -8 44 -16 14 -5 -16 -17 -49 -27 -72 -13 -30 -17 -54 -12 -85 8 -57 60
-211 92 -272 l26 -49 -30 -24 c-285 -237 -454 -468 -559 -766 -77 -219 -90
-304 -89 -587 0 -228 2 -253 27 -363 39 -170 103 -343 162 -437 14 -22 25 -44
25 -49 0 -5 -21 -22 -47 -37 -27 -15 -52 -33 -58 -39 -5 -6 -41 -34 -80 -60
-134 -94 -413 -394 -566 -608 -248 -349 -361 -572 -426 -847 -26 -107 -25
-388 1 -480 35 -125 92 -229 170 -306 139 -138 293 -190 477 -160 134 22 298
109 454 241 488 413 917 597 1525 656 153 14 490 6 640 -16 233 -35 438 -91
629 -170 237 -99 422 -210 661 -400 220 -173 269 -208 355 -250 127 -61 233
-82 340 -65 144 22 271 94 365 207 57 69 83 118 115 218 82 263 37 584 -126
905 -87 170 -212 371 -296 475 -13 17 -59 75 -102 130 -103 133 -147 183 -255
289 -134 130 -285 248 -394 305 l-23 12 21 29 c61 86 150 334 186 515 24 127
26 151 22 338 -6 262 -27 364 -121 607 -22 58 -48 116 -57 130 -9 14 -19 32
-23 42 -10 28 -126 199 -183 269 -29 37 -96 107 -148 155 -65 61 -96 96 -96
111 0 12 13 41 28 65 51 78 81 162 103 291 12 70 19 130 15 134 -3 4 -26 -14
-50 -40 -41 -43 -128 -105 -169 -120 -17 -7 -205 -30 -333 -42 -40 -4 -140 -1
-223 6 l-151 12 0 56 c0 102 -28 289 -55 363 -117 323 -350 542 -725 680 -157
58 -262 86 -441 117 l-96 16 -24 -35z m312 -230 c200 -51 349 -120 477 -218
201 -153 330 -381 362 -636 14 -111 8 -431 -10 -535 -6 -35 -9 -66 -6 -68 25
-25 192 171 211 248 l6 26 177 6 c186 6 231 15 424 82 39 14 75 25 80 25 12 0
-31 -71 -66 -110 -45 -51 -167 -124 -257 -155 -68 -23 -107 -29 -204 -33 -110
-4 -119 -3 -106 12 8 9 12 19 9 21 -7 8 -58 -68 -58 -86 0 -8 32 -39 70 -69
110 -83 270 -252 270 -285 0 -3 -45 17 -100 45 -103 53 -111 56 -247 95 -76
21 -225 94 -239 116 -3 6 -19 -18 -36 -53 -91 -192 -113 -290 -105 -460 3 -65
3 -118 0 -118 -16 0 -85 55 -110 89 -53 69 -71 99 -97 165 -37 92 -43 175 -21
271 l18 77 -29 24 c-53 43 -121 14 -420 -182 -84 -56 -154 -100 -154 -98 0 8
84 141 113 179 32 41 126 137 164 167 12 9 40 27 62 40 23 13 41 26 41 30 0
16 -53 23 -165 20 -184 -4 -262 15 -404 97 -74 44 -171 126 -171 145 0 20 45
39 82 34 18 -3 87 -19 153 -37 66 -17 136 -31 156 -31 19 0 40 -5 46 -11 9 -9
24 -9 60 1 69 17 326 14 363 -5 44 -23 92 -86 149 -195 29 -55 57 -100 62
-100 6 0 8 6 6 13 -3 6 -14 36 -23 65 -17 51 -17 53 3 90 39 71 57 167 57 317
1 204 -31 306 -138 430 -75 88 -101 111 -200 176 -96 62 -249 120 -374 139
-125 20 -142 27 -142 60 0 16 14 64 31 107 49 122 38 113 117 98 38 -8 89 -19
113 -25z m-821 -2338 c0 -120 13 -193 50 -288 53 -132 147 -249 234 -290 l35
-17 -21 -41 c-34 -69 -86 -126 -114 -126 -69 0 -159 82 -215 196 -31 63 -33
72 -37 208 -3 113 0 164 18 261 11 66 24 137 27 158 11 70 23 37 23 -61z
m2804 -129 c9 -43 16 -117 16 -184 0 -96 -5 -129 -32 -225 -30 -107 -33 -114
-62 -123 -85 -28 -159 -21 -173 14 -3 9 31 92 81 195 47 99 90 199 95 222 6
24 17 79 27 122 18 90 24 87 48 -21z m-1729 -688 c319 -23 651 -30 802 -16 73
7 137 9 144 6 7 -5 2 -16 -17 -33 -27 -26 -27 -26 -6 -35 12 -6 22 -18 22 -28
0 -17 -67 -73 -143 -117 -51 -31 -204 -69 -292 -73 l-70 -4 -22 60 -23 60 6
-49 c11 -83 12 -81 -26 -84 -19 -2 -72 -1 -116 3 l-82 7 -20 51 -21 52 0 -51
-1 -51 -67 9 c-38 5 -71 12 -74 16 -4 4 -21 44 -39 90 -18 45 -37 82 -42 82
-10 0 -1 -57 19 -114 7 -22 11 -41 9 -43 -2 -2 -28 2 -57 9 -60 16 -63 20
-118 155 -18 46 -31 89 -27 98 7 18 10 18 261 0z m-818 -486 c98 -13 300 -62
417 -100 49 -16 95 -29 103 -29 8 0 69 -16 136 -35 262 -76 478 -93 701 -55
122 21 215 44 507 129 106 31 231 59 315 71 162 23 157 23 149 10 -4 -6 -11
-8 -16 -5 -14 9 -11 -2 5 -17 11 -11 29 -12 93 -5 114 13 206 -4 280 -52 84
-55 563 -535 654 -656 85 -112 144 -203 136 -211 -3 -3 -27 18 -53 47 -94 101
-330 344 -403 414 -109 103 -176 172 -273 278 -48 52 -109 108 -135 123 -44
26 -56 29 -138 28 -77 -1 -103 -6 -186 -37 -53 -19 -132 -43 -175 -52 -91 -18
-197 -47 -304 -81 -182 -59 -421 -109 -583 -122 -251 -21 -449 13 -837 139
-102 34 -219 70 -260 81 -41 10 -118 39 -170 63 -53 25 -129 53 -170 64 l-75
19 102 1 c56 1 137 -4 180 -10z m-233 -135 c4 -11 1 -14 -11 -12 -9 2 -18 9
-21 16 -6 18 25 15 32 -4z m-280 -40 c31 -12 15 -40 -49 -87 -143 -106 -407
-364 -587 -574 -71 -83 -98 -107 -98 -87 0 4 14 29 30 56 17 26 30 52 30 56 0
12 80 115 158 202 132 149 269 277 415 388 71 54 75 56 101 46z m376 -33 c19
-10 48 -35 65 -55 26 -33 30 -46 30 -99 0 -67 -12 -90 -67 -136 -39 -31 -149
-41 -195 -18 -44 23 -91 81 -99 123 -12 67 26 146 90 185 41 25 129 25 176 0z
m2648 5 c60 -31 112 -110 112 -169 0 -88 -97 -177 -192 -177 -53 0 -130 50
-156 102 -24 50 -27 82 -12 124 16 42 66 100 102 117 41 20 110 22 146 3z
m-2253 -385 c45 -20 92 -70 101 -107 12 -46 -2 -121 -27 -152 -54 -67 -145
-90 -215 -54 -144 73 -136 265 13 317 51 19 81 18 128 -4z m-816 -9 c52 -26
74 -63 79 -129 4 -72 -26 -138 -77 -167 -47 -27 -135 -27 -181 -1 -105 62
-105 241 1 293 54 27 131 29 178 4z m2710 -4 c42 -30 65 -70 69 -124 7 -87
-23 -143 -93 -175 -77 -35 -134 -21 -197 49 -78 86 -57 199 47 256 36 20 142
16 174 -6z m780 3 c56 -29 75 -64 75 -138 0 -97 -57 -169 -142 -180 -89 -12
-162 44 -182 141 -13 65 -2 122 32 153 47 44 155 55 217 24z m-399 -346 c45
-23 84 -81 97 -145 2 -8 -2 -33 -8 -55 -13 -49 -95 -121 -147 -131 -51 -10
-110 13 -161 61 -45 43 -46 45 -46 108 0 74 26 122 85 156 43 25 137 28 180 6z
m-2680 -17 c96 -50 133 -144 90 -233 -33 -68 -79 -98 -155 -103 -72 -5 -102 8
-155 63 -33 34 -35 40 -35 105 0 80 14 105 89 157 58 40 103 43 166 11z"/>
<path d="M10080 80 l0 -80 80 0 80 0 0 80 0 80 -80 0 -80 0 0 -80z"/>
</g>
</svg>
